<svg width="17" height="15" viewBox="0 0 17 15" fill="none" xmlns="http://www.w3.org/2000/svg">
<path d="M10.1 1.66667L11.625 3.33333H15V13.3333H1.66667V3.33333H5.04167L6.56667 1.66667H10.1ZM10.8333 0H5.83333L4.30833 1.66667H1.66667C0.75 1.66667 0 2.41667 0 3.33333V13.3333C0 14.25 0.75 15 1.66667 15H15C15.9167 15 16.6667 14.25 16.6667 13.3333V3.33333C16.6667 2.41667 15.9167 1.66667 15 1.66667H12.3583L10.8333 0ZM8.33333 5.83333C9.70833 5.83333 10.8333 6.95833 10.8333 8.33333C10.8333 9.70833 9.70833 10.8333 8.33333 10.8333C6.95833 10.8333 5.83333 9.70833 5.83333 8.33333C5.83333 6.95833 6.95833 5.83333 8.33333 5.83333ZM8.33333 4.16667C6.03333 4.16667 4.16667 6.03333 4.16667 8.33333C4.16667 10.6333 6.03333 12.5 8.33333 12.5C10.6333 12.5 12.5 10.6333 12.5 8.33333C12.5 6.03333 10.6333 4.16667 8.33333 4.16667Z" fill="#DEDEDE"/>
</svg>
